<svg width="246" height="88" viewBox="0 0 246 88" fill="none" xmlns="http://www.w3.org/2000/svg">
<g clip-path="url(#clip0_1_2749)">
<path d="M0 68.262L5.4686 36.9956H17.2738L11.892 68.262H0ZM6.24982 29.1354C6.24982 32.4541 8.94072 34.2009 11.9788 34.2009C15.6246 34.2009 19.7043 31.8428 19.7043 27.3886C19.7043 24.0699 17.0134 22.3231 14.0621 22.3231C10.3296 22.2358 6.24982 24.6812 6.24982 29.1354Z" fill="#007FFF"/>
<path d="M32.4644 52.1921C31.8567 55.7729 32.2908 59.179 36.2837 59.179C40.2766 59.179 41.7523 55.2489 42.2731 52.3668L45.0508 36.4716H56.856L51.2138 68.524C49.3042 79.6157 41.5787 84.1572 32.1172 84.1572C22.6556 84.1572 17.0134 79.8777 18.2287 70.7948H29.3395C29.1658 74.0262 31.5095 74.6376 33.94 74.6376C37.6725 74.6376 39.235 72.2795 39.9294 68.6114L40.7107 64.2445C38.1934 67.3886 35.6761 68.3493 32.1172 68.3493C22.048 68.3493 19.1835 61.6245 20.7459 52.3668L23.5236 36.4716H35.1553L32.4644 52.1921Z" fill="#007FFF"/>
<path d="M88.9732 36.4716L88.2788 40.4891L73.175 58.131H85.7615L83.9386 68.262H55.7276L56.3352 64.5939L72.2202 45.8166H60.849L62.4982 36.3843H88.9732V36.4716Z" fill="#007FFF"/>
<path d="M88.9732 68.262L94.5286 36.9956H106.334L100.865 68.262H88.9732ZM95.223 29.1354C95.223 32.4541 97.9139 34.2009 100.952 34.2009C104.598 34.2009 108.677 31.8428 108.677 27.3886C108.677 24.0699 105.987 22.3231 103.035 22.3231C99.3027 22.2358 95.223 24.6812 95.223 29.1354Z" fill="#007FFF"/>
<path d="M141.749 35.5109C139.059 33.1528 135.76 32.6288 131.854 32.6288C128.555 32.6288 125.083 33.6769 125.083 36.559C125.083 39.179 127.861 39.5284 131.854 39.8777C139.753 40.7511 147.652 44.3319 147.652 52.9782C147.652 64.6812 136.888 69.5721 125.17 69.5721C117.358 69.5721 111.368 67.8253 106.507 61.6245L114.927 53.5895C118.573 57.9563 123.347 58.655 127.167 58.655C131.68 58.655 134.979 56.9956 134.979 54.2882C134.979 52.2795 132.635 50.9694 128.121 50.5328C119.441 49.6594 112.236 47.3886 112.236 38.393C112.236 26.8646 123.26 22.2358 133.59 22.2358C140.361 22.2358 145.308 23.8079 149.388 27.5633L141.749 35.5109Z" fill="#007FFF"/>
<path d="M169.526 23.1965L166.662 39.8777C169.44 36.9956 172.044 35.7729 175.863 35.7729C182.287 35.7729 187.582 39.9651 185.672 50.6201L182.634 68.262H170.742L173.78 50.7074C174.301 47.1266 172.738 45.9913 170.308 45.9913C167.877 45.9913 165.1 47.738 164.405 51.4934L161.454 68.262H149.649L157.548 23.1965H169.526Z" fill="#007FFF"/>
<path d="M188.536 68.262L194.005 36.9956H205.81L200.342 68.262H188.536ZM194.786 29.1354C194.786 32.4541 197.477 34.2009 200.515 34.2009C204.161 34.2009 208.241 31.8428 208.241 27.3886C208.241 24.0699 205.55 22.3231 202.598 22.3231C198.866 22.2358 194.786 24.6812 194.786 29.1354Z" fill="#007FFF"/>
<path d="M216.4 81.5371H204.595L212.494 36.4716H222.997L222.91 39.8777C225.948 37.083 229.941 35.6856 234.021 35.8603C241.833 36.2969 246 41.1004 246 48.8734C246 60.4891 237.841 68.9607 227.337 68.9607C223.344 68.9607 220.567 67.6506 219.178 65.5546L216.4 81.5371ZM234.108 50.9694C234.108 47.3886 231.938 45.3799 228.9 45.3799C224.56 45.4672 221.174 49.048 221.174 53.4148C221.174 56.5589 222.824 59.3537 226.382 59.3537C230.462 59.3537 234.108 56.1223 234.108 50.9694Z" fill="#007FFF"/>
<path d="M94.9626 78.0437C94.5286 77.6943 93.921 77.4323 93.3133 77.4323C92.5321 77.345 91.8377 77.9563 91.7509 78.655C91.7509 79.0917 92.0981 79.4411 92.7057 79.6157L93.5737 79.7904C94.789 80.0524 95.3966 80.7511 95.3966 81.6245C95.3966 83.1092 94.1814 84.2446 92.2717 84.2446C91.3169 84.2446 90.362 83.8079 89.8412 83.1092L90.6224 82.4105C91.0565 83.0218 91.7509 83.2839 92.4453 83.2839C93.3133 83.3712 94.1814 82.7598 94.2682 81.8865C94.2682 81.3625 93.921 81.0131 93.2265 80.8384L92.3585 80.6638C91.4905 80.4891 90.7092 79.9651 90.7092 79.0044C90.796 77.607 92.0981 76.4716 93.4869 76.6463C94.2682 76.6463 95.0494 76.9083 95.657 77.4323L94.9626 78.0437Z" fill="#007FFF"/>
<path d="M98.4347 84.1572H97.3063L99.3896 72.4542H100.518L99.5632 77.6943C100.258 76.9956 101.212 76.559 102.167 76.559C103.99 76.559 105.119 77.7817 104.771 79.8777L103.99 84.2446H102.862L103.643 79.9651C103.903 78.5677 103.296 77.607 101.994 77.607C100.952 77.6943 99.9104 78.3057 99.3896 79.1791L98.4347 84.1572Z" fill="#007FFF"/>
<path d="M107.723 84.1572H106.594L107.896 76.6463H109.025L107.723 84.1572ZM109.025 73.3275C109.459 73.3275 109.719 73.6769 109.719 74.0262C109.719 74.5502 109.198 74.9869 108.677 74.9869C108.33 74.9869 107.983 74.6376 107.983 74.2882C108.07 73.7642 108.504 73.3275 109.025 73.3275Z" fill="#007FFF"/>
<path d="M114.146 84.3319C113.104 84.4192 112.236 83.8079 111.802 82.8472L110.934 87.9127H109.806L111.802 76.6463H112.323L112.497 78.131C113.191 77.1703 114.32 76.559 115.535 76.559C117.184 76.559 118.486 77.869 118.573 79.5284V79.7904C118.573 82.2358 116.577 84.3319 114.146 84.3319ZM115.361 77.607C113.799 77.607 112.497 78.8297 112.236 80.3144V80.4891C111.976 82.0611 112.844 83.2838 114.32 83.2838C116.056 83.1965 117.445 81.7118 117.358 79.8777C117.531 78.7424 116.663 77.6943 115.622 77.607C115.535 77.607 115.448 77.607 115.361 77.607Z" fill="#007FFF"/>
<path d="M130.812 82.2358L131.68 82.7598C130.812 83.8078 129.51 84.3319 128.208 84.3319C126.559 84.4192 125.083 83.1965 124.996 81.5371V81.1004C124.91 78.655 126.906 76.5589 129.337 76.5589H129.423C130.986 76.4716 132.288 77.7816 132.375 79.3537V79.703C132.375 80.0524 132.288 80.4891 132.201 80.8384H126.212C125.951 81.9738 126.646 83.1092 127.774 83.3712C128.035 83.4585 128.208 83.4585 128.469 83.3712C129.337 83.3712 130.205 82.9345 130.812 82.2358ZM126.385 79.8777H131.16V79.7904C131.333 78.7423 130.725 77.7816 129.684 77.5196C129.51 77.5196 129.337 77.4323 129.163 77.5196C127.774 77.5196 126.646 78.4803 126.385 79.8777Z" fill="#007FFF"/>
<path d="M138.625 76.559C139.753 76.559 140.708 77.083 141.229 78.131L141.836 76.7336H142.357L141.055 84.2445H140.1L140.274 82.8472C139.579 83.8079 138.451 84.4192 137.236 84.4192C135.586 84.4192 134.198 83.1092 134.198 81.3625V81.1004C134.198 78.5677 136.194 76.559 138.625 76.559ZM137.409 83.2838C138.972 83.1965 140.361 81.9738 140.534 80.4017V80.2271C140.795 79.0917 140.013 77.869 138.885 77.6943C138.711 77.6943 138.538 77.607 138.364 77.607C136.628 77.6943 135.152 79.0917 135.239 80.9258C135.152 82.1485 136.02 83.1965 137.236 83.2838H137.409Z" fill="#007FFF"/>
<path d="M148.694 78.0437C148.26 77.6943 147.652 77.4323 147.044 77.4323C146.263 77.345 145.569 77.9563 145.482 78.655C145.482 79.0917 145.829 79.4411 146.437 79.6157L147.305 79.7904C148.52 80.0524 149.128 80.7511 149.128 81.6245C149.128 83.1092 147.912 84.2445 146.003 84.2445C145.048 84.2445 144.093 83.8079 143.572 83.1092L144.354 82.4105C144.788 83.0218 145.482 83.2838 146.176 83.2838C147.044 83.3712 147.912 82.7598 147.999 81.8865V81.7991C147.999 81.2751 147.652 80.9258 146.958 80.7511L146.09 80.5764C145.135 80.4018 144.44 79.8777 144.44 78.917C144.527 77.5197 145.829 76.3843 147.218 76.559C147.999 76.559 148.781 76.821 149.388 77.345L148.694 78.0437Z" fill="#007FFF"/>
<path d="M153.207 86.1659C152.687 87.3013 151.558 88 150.256 88C149.996 88 149.735 88 149.475 87.9127L149.735 87.0393H150.343C151.037 87.1266 151.732 86.6899 152.079 85.9913L153.207 84.1572L151.471 76.7336H152.6L153.989 82.8471L157.461 76.7336H158.676L153.207 86.1659Z" fill="#007FFF"/>
<path d="M160.759 82.7598C161.107 82.7598 161.454 83.0218 161.454 83.4585V83.5459C161.454 84.0699 161.02 84.5066 160.499 84.5066C160.152 84.5066 159.805 84.2445 159.805 83.8079C159.805 83.1965 160.239 82.7598 160.759 82.7598ZM161.627 81.2751H160.499L161.975 72.8035H163.103L161.627 81.2751Z" fill="#007FFF"/>
<path d="M85.8483 78.7424H55.7276V79.6157H85.8483V78.7424Z" fill="#007FFF"/>
<path d="M198.866 78.7424H168.832V79.6157H198.866V78.7424Z" fill="#007FFF"/>
<path d="M142.123 0.436676C140.821 0.436676 140.821 1.57205 141.255 2.44541L143.425 6.81222C143.772 7.51091 143.859 8.2096 143.685 8.82096L142.644 12.6637C142.296 13.7118 142.557 13.7991 143.078 13.3624L145.161 11.7904C145.595 11.5284 146.029 11.5284 146.376 12.1397L149.675 18.952C150.369 20.0873 151.237 20.262 152.279 19.1266L167.903 3.31877C168.424 2.70742 168.511 2.1834 167.296 2.09606L142.123 0.436676Z" stroke="#007FFF" stroke-miterlimit="10"/>
<path d="M144.024 8.09606L167.669 2.58514" stroke="#007FFF" stroke-width="0.75" stroke-linecap="round" stroke-linejoin="round"/>
<path d="M145.222 11.6332L167.955 2.98689" stroke="#007FFF" stroke-width="0.75" stroke-linecap="round" stroke-linejoin="round"/>
</g>
<defs>
<clipPath id="clip0_1_2749">
<rect width="246" height="88" fill="white"/>
</clipPath>
</defs>
</svg>
