<svg width="20" height="15" viewBox="0 0 20 15" fill="none" xmlns="http://www.w3.org/2000/svg">
<path d="M10.0045 3.15789C12.5148 3.15789 14.5521 4.92632 14.5521 7.10526C14.5521 7.61842 14.4338 8.1 14.2246 8.55L16.8804 10.8553C18.2538 9.86053 19.3361 8.57368 20 7.10526C18.4266 3.63947 14.543 1.18421 9.99545 1.18421C8.72215 1.18421 7.50341 1.38158 6.37563 1.73684L8.34015 3.44211C8.85857 3.26053 9.41337 3.15789 10.0045 3.15789ZM0.909504 1.00263L2.98317 2.80263L3.40155 3.16579C1.89177 4.18421 0.709413 5.54211 0 7.10526C1.57344 10.5711 5.45703 13.0263 10.0045 13.0263C11.4143 13.0263 12.7603 12.7895 13.9882 12.3632L14.3702 12.6947L17.035 15L18.1901 13.9974L2.06457 0L0.909504 1.00263ZM5.93906 5.36842L7.34879 6.59211C7.30332 6.7579 7.27603 6.93158 7.27603 7.10526C7.27603 8.41579 8.49477 9.47368 10.0045 9.47368C10.2046 9.47368 10.4047 9.45 10.5957 9.41053L12.0055 10.6342C11.3961 10.8947 10.7231 11.0526 10.0045 11.0526C7.49432 11.0526 5.45703 9.28421 5.45703 7.10526C5.45703 6.48158 5.63893 5.89737 5.93906 5.36842ZM9.85903 4.75263L12.724 7.23947L12.7422 7.11316C12.7422 5.80263 11.5234 4.74474 10.0136 4.74474L9.85903 4.75263Z" fill="#BDBDBD"/>
</svg>
